<?xml version="1.0" standalone="no"?>
<!DOCTYPE svg PUBLIC "-//W3C//DTD SVG 20010904//EN"
 "http://www.w3.org/TR/2001/REC-SVG-20010904/DTD/svg10.dtd">
<svg version="1.0" xmlns="http://www.w3.org/2000/svg"
 width="1872.000000pt" height="1872.000000pt" viewBox="0 0 1872.000000 1872.000000"
 preserveAspectRatio="xMidYMid meet">
<metadata>
Created by potrace 1.14, written by Peter Selinger 2001-2017
</metadata>
<g transform="translate(0.000000,1872.000000) scale(0.100000,-0.100000)"
fill="#000000" stroke="none">
<path d="M288 14160 c-16 -4 -28 -7 -28 -4 0 13 -119 -66 -151 -100 -60 -65
-69 -76 -64 -76 3 0 -5 -19 -17 -42 l-23 -43 -3 -4505 c-2 -4930 -6 -4572 54
-4663 43 -66 136 -142 187 -153 4 -1 9 -3 12 -4 3 -1 9 -3 14 -4 5 0 13 -4 17
-8 4 -5 598 -8 1319 -8 1195 0 1316 2 1361 17 105 35 184 105 227 202 21 47
24 56 32 101 2 14 4 805 4 1758 1 1147 4 1732 11 1732 6 0 10 -5 10 -11 0 -8
218 -346 274 -424 8 -11 35 -51 60 -90 25 -38 51 -77 56 -85 10 -14 43 -64 65
-99 24 -38 71 -107 78 -116 4 -5 36 -53 70 -105 34 -52 65 -96 70 -98 4 -2 7
-10 7 -18 0 -8 5 -14 10 -14 6 0 10 -6 10 -13 0 -7 9 -23 20 -35 11 -12 20
-24 20 -27 0 -3 36 -58 79 -123 206 -305 461 -694 461 -702 0 -4 3 -10 8 -12
10 -4 72 -94 72 -105 0 -4 10 -20 22 -34 29 -32 47 -59 54 -81 4 -10 10 -18
15 -18 5 0 9 -5 9 -11 0 -6 14 -28 30 -49 17 -21 30 -41 30 -44 0 -3 12 -24
28 -45 15 -21 34 -49 42 -61 8 -12 27 -40 43 -61 15 -21 27 -41 27 -43 0 -9
64 -101 72 -104 5 -2 6 -8 2 -13 -3 -5 0 -9 6 -9 5 0 18 -16 27 -35 9 -19 20
-35 25 -35 4 0 8 -4 8 -10 0 -12 141 -224 152 -228 4 -2 8 -8 8 -13 0 -10 324
-500 368 -556 15 -19 64 -72 108 -118 97 -100 162 -134 294 -155 97 -15 2433
-13 2485 2 22 7 52 20 67 30 14 10 29 18 33 18 22 0 87 104 102 163 3 12 6
882 7 1932 l1 1910 1418 2 c1219 1 1417 -1 1417 -13 0 -8 5 -14 10 -14 6 0 10
-7 10 -15 0 -8 5 -15 10 -15 6 0 10 -6 10 -12 0 -7 21 -44 45 -83 24 -38 51
-83 60 -100 8 -16 26 -48 40 -70 14 -22 28 -47 32 -55 4 -8 9 -17 13 -20 3 -3
17 -26 30 -52 14 -27 28 -48 32 -48 5 0 8 -5 8 -11 0 -13 71 -131 85 -141 5
-4 7 -8 3 -8 -4 0 15 -36 42 -80 28 -44 50 -82 50 -86 0 -3 8 -18 19 -32 10
-15 28 -43 39 -62 10 -19 70 -120 132 -225 62 -104 124 -210 138 -235 13 -25
29 -51 35 -58 15 -19 47 -75 53 -94 4 -10 10 -18 15 -18 5 0 9 -7 9 -15 0 -8
5 -15 12 -15 6 0 9 -3 5 -6 -3 -3 16 -42 44 -85 27 -43 49 -81 49 -84 0 -3 8
-18 19 -33 26 -39 48 -75 51 -87 1 -5 14 -28 29 -50 29 -45 32 -50 90 -149 23
-38 41 -73 41 -77 0 -5 4 -9 9 -9 5 0 11 -8 14 -17 4 -10 17 -36 31 -58 14
-22 34 -54 43 -72 17 -30 144 -245 170 -288 7 -11 16 -28 19 -37 3 -10 10 -18
15 -18 5 0 9 -5 9 -10 0 -6 12 -29 27 -53 15 -23 28 -44 28 -47 2 -7 37 -67
62 -106 13 -19 30 -49 39 -67 9 -17 20 -34 23 -37 3 -3 17 -25 30 -50 43 -80
46 -84 59 -98 7 -8 19 -28 28 -45 8 -18 20 -41 27 -52 57 -94 117 -199 117
-206 0 -5 4 -9 10 -9 5 0 12 -11 16 -25 3 -14 10 -25 14 -25 5 0 14 -16 21
-35 7 -19 17 -35 21 -35 4 0 8 -7 8 -15 0 -8 4 -15 8 -15 5 0 14 -16 22 -35 8
-19 16 -35 19 -35 4 0 12 -13 19 -28 6 -16 21 -38 32 -50 12 -12 18 -22 15
-22 -4 0 6 -17 22 -38 182 -247 255 -284 548 -279 134 3 166 6 195 22 45 24
133 112 125 125 -3 6 -2 10 3 10 29 0 38 154 13 215 -23 55 -23 56 -161 290
-46 77 -94 160 -108 185 -14 25 -36 61 -49 80 -12 19 -23 40 -23 47 0 7 -4 13
-10 13 -5 0 -10 5 -10 11 0 6 -14 31 -30 56 -16 24 -30 46 -30 49 0 2 -27 50
-61 107 -33 56 -64 109 -69 117 -156 265 -216 366 -220 375 -3 5 -13 22 -22
38 -39 60 -52 82 -48 82 3 0 -9 20 -25 45 -48 73 -55 83 -71 115 -17 33 -21
40 -139 237 -44 73 -85 144 -92 158 -7 14 -21 39 -32 55 -10 17 -41 68 -68
115 -27 47 -64 107 -81 134 -18 28 -32 53 -32 57 0 5 -14 28 -30 52 -17 25
-30 48 -30 51 0 3 -16 30 -35 60 -19 30 -35 58 -35 62 0 4 -6 15 -14 23 -7 9
-24 36 -37 61 -13 25 -26 47 -29 50 -7 6 -129 216 -144 247 -6 13 -14 23 -18
23 -5 0 -8 5 -8 12 0 6 -25 51 -55 100 -30 48 -55 91 -55 93 0 3 -17 34 -38
68 -85 138 -112 186 -112 196 0 6 -4 11 -10 11 -5 0 -10 4 -10 9 0 5 -18 39
-40 75 -22 36 -40 70 -40 76 0 5 -4 10 -10 10 -5 0 -10 4 -10 10 0 5 -20 42
-44 82 -51 83 -50 86 44 103 8 1 22 5 30 8 12 5 81 25 110 32 27 6 156 51 160
55 3 3 14 7 25 8 11 2 35 12 55 22 19 10 37 18 40 18 3 1 22 8 42 16 21 9 42
16 48 16 5 0 10 5 10 10 0 6 9 10 19 10 11 0 27 7 35 16 9 8 16 12 16 8 0 -3
7 -1 15 6 8 7 15 9 15 4 0 -5 4 -4 8 1 4 6 36 25 72 44 36 18 72 40 81 47 8 8
19 14 22 14 9 0 145 87 178 114 15 12 39 30 53 40 134 97 412 372 438 435 4 9
7 12 7 8 1 -5 22 22 47 60 25 37 50 70 55 71 5 2 9 8 9 13 0 7 20 44 75 134 7
11 13 23 14 27 1 4 22 49 47 99 26 50 47 96 49 102 1 7 6 21 10 32 18 44 43
110 43 115 1 6 9 33 19 58 3 9 7 22 8 27 2 6 11 39 20 75 9 36 19 73 21 83 2
9 6 27 9 40 31 127 60 342 70 512 4 59 8 405 5 415 -1 3 -3 39 -5 80 -2 41 -7
104 -10 140 -4 36 -7 72 -7 80 -1 8 -6 18 -12 22 -7 5 -7 8 2 8 7 0 11 4 8 8
-3 5 -8 31 -12 58 -3 27 -8 58 -10 69 -3 11 -7 36 -10 55 -3 19 -7 43 -10 52
-3 10 -7 28 -10 40 -30 162 -104 384 -182 548 -20 41 -35 78 -34 83 1 4 -2 7
-6 7 -5 0 -17 19 -28 43 -10 23 -23 47 -29 53 -5 6 -19 27 -30 47 -11 20 -23
37 -28 37 -4 0 -5 5 -2 10 3 6 -1 13 -9 16 -9 3 -16 11 -16 18 0 13 -128 176
-172 219 -15 15 -28 29 -28 32 0 2 -23 26 -52 52 -28 26 -61 57 -72 68 -12 11
-55 47 -96 80 -41 33 -77 62 -80 65 -3 3 -26 19 -52 35 -27 17 -48 33 -48 38
0 4 -5 7 -11 7 -6 0 -29 13 -52 28 -72 49 -205 122 -222 122 -8 0 -15 4 -15 8
0 7 -104 60 -130 67 -3 1 -25 10 -50 21 -25 10 -48 18 -52 16 -5 -1 -8 2 -8 6
0 5 -23 15 -51 22 -27 8 -52 18 -55 22 -3 4 -14 8 -25 8 -10 0 -19 5 -19 11 0
5 -4 8 -9 5 -5 -3 -28 1 -52 10 -48 17 -210 62 -249 70 -14 2 -32 7 -40 10 -8
3 -26 8 -40 10 -14 3 -36 7 -50 10 -14 3 -36 8 -50 10 -14 2 -36 6 -50 9 -29
5 -78 13 -117 19 -16 2 -42 7 -60 10 -18 4 -58 8 -90 11 -32 3 -71 7 -88 9
-16 2 -55 5 -85 7 -30 1 -60 6 -65 10 -6 5 -1356 7 -3000 6 -2826 -2 -2992 -3
-3024 -19 -19 -10 -38 -18 -43 -18 -10 0 -17 -5 -74 -58 -52 -47 -77 -85 -104
-152 l-21 -53 -1 -1905 c0 -1521 -3 -1901 -13 -1891 -17 20 -105 168 -105 179
0 4 -3 10 -8 12 -10 4 -92 136 -92 148 0 5 -7 13 -16 18 -9 5 -16 13 -16 18
-1 8 -18 39 -82 147 -10 18 -21 34 -25 37 -3 3 -13 19 -22 35 -35 65 -163 270
-173 277 -6 4 -7 8 -2 8 5 0 2 8 -6 18 -8 9 -34 51 -58 92 -24 41 -47 77 -52
78 -4 2 -8 8 -8 13 0 12 -62 113 -72 117 -4 2 -8 8 -8 13 0 4 -42 76 -92 159
-51 83 -103 168 -116 188 -12 20 -25 44 -29 52 -4 8 -9 17 -12 20 -8 7 -29 41
-43 70 -7 14 -15 27 -18 30 -3 3 -15 21 -26 40 -79 133 -259 426 -267 431 -5
3 -7 8 -6 10 2 2 -14 30 -34 62 -20 31 -37 62 -37 67 0 6 -4 10 -10 10 -5 0
-10 4 -10 9 0 6 -28 55 -62 111 -81 130 -100 162 -144 238 -20 34 -40 62 -45
62 -5 0 -8 3 -7 8 3 9 -72 134 -86 144 -6 4 -7 8 -3 8 4 0 -6 20 -23 44 -16
25 -30 49 -30 55 0 6 -3 11 -7 11 -5 0 -17 18 -27 40 -11 22 -23 40 -27 40 -4
0 -10 11 -13 25 -4 14 -11 25 -16 25 -6 0 -10 6 -10 14 0 7 -9 24 -19 37 -10
14 -27 39 -37 56 -20 34 -116 194 -137 228 -7 11 -14 22 -17 25 -3 3 -12 17
-20 32 -182 330 -341 492 -505 515 -16 3 -37 9 -46 13 -21 12 -2365 11 -2401
0z m11312 -824 c99 -9 239 -24 290 -31 68 -9 107 -15 130 -20 14 -3 36 -7 50
-10 76 -15 163 -35 220 -51 105 -31 265 -87 288 -100 12 -8 22 -12 22 -9 0 9
243 -119 268 -143 7 -6 23 -17 35 -24 61 -32 225 -178 308 -274 78 -91 188
-273 241 -399 31 -75 78 -220 78 -242 0 -13 4 -23 8 -23 4 0 8 -8 8 -17 1 -18
6 -45 18 -93 8 -30 17 -93 32 -230 4 -30 7 -147 8 -260 1 -217 -6 -319 -29
-455 -20 -116 -23 -130 -25 -130 -2 0 -6 -17 -12 -50 -8 -37 -57 -191 -75
-231 -9 -21 -18 -42 -19 -46 -1 -5 -2 -10 -3 -13 0 -3 -1 -8 0 -11 0 -4 -3
-10 -8 -13 -4 -3 -19 -28 -33 -56 -33 -67 -121 -207 -140 -222 -8 -7 -12 -13
-8 -13 13 0 -203 -230 -217 -230 -3 0 -18 -11 -33 -25 -34 -33 -184 -134 -237
-160 -22 -11 -41 -23 -43 -27 -2 -5 -8 -8 -13 -8 -6 0 -40 -14 -77 -31 -36
-17 -71 -32 -77 -34 -5 -1 -28 -10 -50 -20 -22 -9 -44 -18 -50 -20 -5 -1 -37
-10 -70 -20 -33 -11 -63 -20 -67 -21 -5 -1 -9 -2 -10 -4 -4 -2 -24 -7 -62 -15
-16 -3 -33 -8 -36 -10 -4 -2 -22 -7 -41 -10 -19 -3 -75 -14 -125 -25 -50 -11
-117 -22 -149 -24 -32 -3 -65 -8 -74 -10 -42 -13 -302 -28 -488 -30 -84 0
-153 -5 -153 -9 0 -5 -5 -5 -12 -1 -17 11 -128 11 -128 1 0 -4 -5 -5 -12 -1
-19 12 -278 11 -278 -1 0 -7 -3 -7 -8 0 -9 14 -145 14 -154 0 -5 -6 -8 -5 -8
4 0 11 -3 11 -15 1 -8 -7 -15 -8 -15 -4 0 5 -37 8 -82 7 -46 -2 -90 -3 -98 -3
-8 0 -64 2 -125 3 -60 1 -117 -1 -126 -5 -9 -4 -19 -4 -23 -1 -11 11 -306 10
-306 -2 0 -7 -3 -7 -8 0 -9 14 -152 14 -152 0 0 -6 -3 -7 -8 0 -4 6 -14 10
-22 10 -8 0 -18 -4 -22 -10 -5 -7 -8 -7 -8 0 0 6 -29 9 -72 8 -84 -3 -71 -4
-166 0 -39 1 -72 -2 -72 -6 0 -5 -5 -5 -12 -1 -17 11 -128 11 -128 1 0 -4 -6
-5 -12 -1 -17 11 -258 12 -280 2 -9 -5 -19 -4 -22 0 -2 4 -32 7 -65 6 -34 -1
-62 1 -62 5 -2 13 -5 3886 -3 3891 4 8 2841 4 2924 -4z"/>
<path d="M16173 7318 c-85 -28 -159 -96 -204 -185 l-34 -68 0 -1120 c1 -616 3
-1127 6 -1135 31 -97 105 -182 195 -226 l59 -29 1125 0 1125 0 60 29 c78 39
145 102 181 174 l29 57 2 1100 c3 1189 4 1156 -50 1242 -23 37 -70 87 -109
118 -20 16 -79 42 -123 54 -27 7 -378 11 -1120 10 -1067 0 -1081 0 -1142 -21z"/>
</g>
</svg>
