<?xml version="1.0" encoding="UTF-8"?>
<svg id="Layer_2" data-name="Layer 2" xmlns="http://www.w3.org/2000/svg" viewBox="0 0 723.72 101.61">
  <defs>
    <style>
      .cls-1 {
        fill: #4a8da5;
      }

      .cls-1, .cls-2 {
        stroke-width: 0px;
      }

      .cls-2 {
        fill: #e9eff1;
      }
    </style>
  </defs>
  <g id="Layer_1_copy_4" data-name="Layer 1 copy 4">
    <g>
      <path class="cls-2" d="M2.95,77.57c-.8,0-1.49-.29-2.08-.87-.58-.58-.87-1.27-.87-2.08V4.04c0-.8.29-1.49.87-2.08s1.27-.87,2.08-.87h17.26c1.46,0,2.51.33,3.17.98.66.66,1.09,1.17,1.31,1.53l18.46,30.26V4.04c0-.8.29-1.49.87-2.08s1.27-.87,2.08-.87h19.78c.8,0,1.49.29,2.08.87.58.58.87,1.28.87,2.08v70.58c0,.8-.29,1.49-.87,2.08s-1.28.87-2.08.87h-17.26c-1.46,0-2.51-.34-3.17-1.04-.66-.69-1.09-1.18-1.31-1.48l-18.46-27.86v27.42c0,.8-.29,1.49-.87,2.08s-1.28.87-2.08.87H2.95Z"/>
      <path class="cls-2" d="M109.91,78.67c-6.7,0-12.35-.91-16.94-2.73s-8.1-4.55-10.54-8.19c-2.44-3.64-3.84-8.12-4.21-13.44-.07-1.67-.11-3.4-.11-5.19s.04-3.48.11-5.08c.36-5.39,1.86-9.89,4.48-13.49s6.23-6.32,10.82-8.14c4.59-1.82,10.05-2.73,16.39-2.73s11.8.91,16.39,2.73c4.59,1.82,8.19,4.53,10.82,8.14,2.62,3.61,4.11,8.1,4.48,13.49.15,1.6.22,3.3.22,5.08s-.07,3.52-.22,5.19c-.37,5.32-1.77,9.8-4.21,13.44-2.44,3.64-5.95,6.37-10.54,8.19s-10.23,2.73-16.94,2.73ZM109.91,61.18c2.11,0,3.42-.6,3.93-1.8.51-1.2.84-3.08.98-5.63.07-1.09.11-2.62.11-4.59s-.04-3.5-.11-4.59c-.15-2.4-.47-4.24-.98-5.52-.51-1.27-1.82-1.91-3.93-1.91s-3.33.64-3.88,1.91c-.55,1.28-.89,3.11-1.04,5.52-.07,1.09-.11,2.62-.11,4.59s.04,3.5.11,4.59c.15,2.55.49,4.42,1.04,5.63.55,1.2,1.84,1.8,3.88,1.8Z"/>
      <path class="cls-2" d="M168.04,78.67c-4.15,0-7.83-.76-11.04-2.29-3.21-1.53-5.7-3.61-7.48-6.23-1.79-2.62-2.68-5.57-2.68-8.85,0-5.32,2.17-9.49,6.5-12.51,4.33-3.02,10.14-5.15,17.43-6.39l11.58-1.86v-.11c0-1.89-.16-3.28-.49-4.15-.33-.87-1.26-1.31-2.79-1.31-1.02,0-1.84.2-2.46.6-.62.4-1.29.97-2.02,1.69-.8.8-1.82,1.2-3.06,1.2h-18.57c-.73,0-1.33-.22-1.8-.66-.47-.44-.67-1.02-.6-1.75.07-1.38.66-3,1.75-4.86,1.09-1.86,2.79-3.66,5.08-5.41s5.24-3.2,8.85-4.37c3.61-1.16,7.96-1.75,13.06-1.75s9.27.53,12.95,1.58c3.68,1.06,6.72,2.59,9.12,4.59,2.4,2,4.21,4.48,5.41,7.43,1.2,2.95,1.8,6.28,1.8,10v31.36c0,.8-.29,1.49-.87,2.08s-1.28.87-2.08.87h-19.12c-.8,0-1.49-.29-2.08-.87-.58-.58-.87-1.27-.87-2.08v-3.06c-1.02,1.46-2.31,2.71-3.88,3.77-1.57,1.06-3.33,1.88-5.3,2.46-1.97.58-4.08.87-6.34.87ZM175.58,62.5c1.46,0,2.71-.29,3.77-.87,1.06-.58,1.87-1.51,2.46-2.79.58-1.27.87-2.86.87-4.75v-.11l-6.45,1.42c-1.9.44-3.17,1.02-3.82,1.75-.66.73-.98,1.49-.98,2.29,0,.51.16,1,.49,1.47.33.47.8.86,1.42,1.15.62.29,1.37.44,2.24.44Z"/>
      <path class="cls-2" d="M220.81,77.57c-.8,0-1.49-.29-2.08-.87-.58-.58-.87-1.27-.87-2.08V2.95c0-.8.29-1.49.87-2.08.58-.58,1.27-.87,2.08-.87h21.31c.8,0,1.49.29,2.08.87.58.58.87,1.28.87,2.08v23.49c1.89-2.11,4.3-3.77,7.21-4.97,2.91-1.2,6.04-1.8,9.4-1.8,3.71,0,7.23.87,10.54,2.62,3.31,1.75,6.01,4.44,8.09,8.08,2.08,3.64,3.11,8.34,3.11,14.09v30.16c0,.8-.29,1.49-.87,2.08s-1.28.87-2.08.87h-21.41c-.8,0-1.49-.29-2.08-.87-.58-.58-.87-1.27-.87-2.08v-29.39c0-1.97-.47-3.46-1.42-4.48-.95-1.02-2.29-1.53-4.04-1.53s-3.11.51-4.1,1.53c-.98,1.02-1.47,2.51-1.47,4.48v29.39c0,.8-.29,1.49-.87,2.08s-1.28.87-2.08.87h-21.31Z"/>
      <path class="cls-1" d="M300.46,77.57c-.73,0-1.31-.22-1.75-.66-.44-.44-.66-1.02-.66-1.75V3.61c0-.8.22-1.42.66-1.86s1.02-.66,1.75-.66h25.46c7.65,0,13.75,1.82,18.3,5.46,4.55,3.64,6.83,9.18,6.83,16.61,0,5.83-1.46,10.49-4.37,13.98-2.91,3.5-6.96,5.86-12.13,7.1l17.59,29.94c.22.44.33.84.33,1.2,0,.58-.22,1.09-.66,1.53-.44.44-.95.66-1.53.66h-1.31c-1.17,0-2.04-.31-2.62-.93-.58-.62-1.09-1.29-1.53-2.02l-17.37-29.39h-22.51v29.94c0,.73-.22,1.31-.66,1.75-.44.44-1.06.66-1.86.66h-1.97ZM304.94,38.68h20.43c6.34,0,11.05-1.29,14.15-3.88,3.1-2.58,4.64-6.46,4.64-11.64s-1.55-9.05-4.64-11.64c-3.1-2.58-7.81-3.88-14.15-3.88h-20.43v31.03Z"/>
      <path class="cls-1" d="M387.54,78.67c-5.24,0-9.63-1.09-13.17-3.28-3.53-2.18-6.23-5.17-8.08-8.96-1.86-3.79-2.86-8.01-3-12.67-.07-1.09-.11-2.62-.11-4.59s.04-3.5.11-4.59c.15-4.73,1.15-8.98,3-12.73,1.86-3.75,4.55-6.72,8.08-8.9,3.53-2.19,7.92-3.28,13.17-3.28s9.63,1.09,13.17,3.28c3.53,2.19,6.23,5.15,8.09,8.9,1.86,3.75,2.86,7.99,3,12.73.07,1.09.11,2.62.11,4.59s-.04,3.5-.11,4.59c-.15,4.66-1.15,8.89-3,12.67-1.86,3.79-4.55,6.77-8.09,8.96-3.53,2.19-7.92,3.28-13.17,3.28ZM387.54,72.33c5.1,0,9.25-1.64,12.46-4.92,3.2-3.28,4.92-8.01,5.14-14.2.07-1.09.11-2.44.11-4.04s-.04-2.95-.11-4.04c-.22-6.26-1.93-11.02-5.14-14.26-3.21-3.24-7.36-4.86-12.46-4.86s-9.25,1.62-12.46,4.86c-3.21,3.24-4.92,7.99-5.14,14.26-.07,1.09-.11,2.44-.11,4.04s.04,2.95.11,4.04c.22,6.19,1.93,10.93,5.14,14.2,3.2,3.28,7.36,4.92,12.46,4.92Z"/>
      <path class="cls-1" d="M447.41,78.67c-4.23,0-7.81-.76-10.76-2.29-2.95-1.53-5.34-3.57-7.16-6.12-1.82-2.55-3.15-5.39-3.99-8.52-.84-3.13-1.33-6.3-1.48-9.51-.07-1.09-.11-2.11-.11-3.06s.04-1.97.11-3.06c.15-3.2.64-6.37,1.48-9.51.84-3.13,2.17-5.97,3.99-8.52,1.82-2.55,4.21-4.59,7.16-6.12,2.95-1.53,6.54-2.29,10.76-2.29,4.51,0,8.25.84,11.2,2.51,2.95,1.68,5.34,3.71,7.16,6.12V2.4c0-.73.22-1.31.66-1.75s1.02-.66,1.75-.66h1.86c.73,0,1.31.22,1.75.66.44.44.66,1.02.66,1.75v72.77c0,.73-.22,1.31-.66,1.75-.44.44-1.02.66-1.75.66h-1.86c-.73,0-1.31-.22-1.75-.66-.44-.44-.66-1.02-.66-1.75v-5.13c-1.82,2.48-4.21,4.54-7.16,6.17-2.95,1.64-6.68,2.46-11.2,2.46ZM448.07,72.33c4.15,0,7.5-.98,10.05-2.95,2.55-1.97,4.44-4.42,5.68-7.38,1.24-2.95,1.89-5.92,1.97-8.9.07-1.09.11-2.51.11-4.26s-.04-3.17-.11-4.26c-.07-2.91-.75-5.79-2.02-8.63-1.28-2.84-3.19-5.21-5.74-7.1-2.55-1.89-5.87-2.84-9.94-2.84s-7.59.95-10.11,2.84c-2.51,1.89-4.32,4.37-5.41,7.43-1.09,3.06-1.71,6.34-1.86,9.83-.07,2.04-.07,4.08,0,6.12.15,3.5.76,6.77,1.86,9.83s2.9,5.54,5.41,7.43c2.51,1.9,5.88,2.84,10.11,2.84Z"/>
      <path class="cls-1" d="M511.43,101.61c-4.66,0-8.47-.62-11.42-1.86-2.95-1.24-5.25-2.75-6.88-4.54s-2.79-3.57-3.44-5.35-1.02-3.22-1.09-4.31c-.07-.73.15-1.33.66-1.8.51-.47,1.09-.71,1.75-.71h1.53c.58,0,1.09.13,1.53.38.44.25.8.89,1.09,1.91.44,1.16,1.15,2.53,2.13,4.1.98,1.57,2.55,2.93,4.7,4.1,2.15,1.17,5.12,1.75,8.91,1.75,4,0,7.36-.51,10.05-1.53,2.69-1.02,4.75-2.82,6.17-5.41,1.42-2.59,2.13-6.17,2.13-10.76v-7.54c-1.82,2.48-4.21,4.54-7.16,6.17-2.95,1.64-6.68,2.46-11.2,2.46-4.23,0-7.81-.76-10.76-2.29-2.95-1.53-5.34-3.57-7.16-6.12-1.82-2.55-3.17-5.39-4.04-8.52-.87-3.13-1.35-6.3-1.42-9.51-.07-2.04-.07-4.08,0-6.12.07-3.2.55-6.37,1.42-9.51.87-3.13,2.22-5.97,4.04-8.52,1.82-2.55,4.21-4.59,7.16-6.12,2.95-1.53,6.54-2.29,10.76-2.29,4.52,0,8.25.84,11.2,2.51,2.95,1.68,5.33,3.71,7.16,6.12v-5.03c0-.73.22-1.33.66-1.8.44-.47,1.02-.71,1.75-.71h1.75c.73,0,1.33.24,1.8.71.47.47.71,1.08.71,1.8v53.21c0,4.66-.69,8.89-2.08,12.67-1.38,3.79-3.84,6.81-7.38,9.07-3.53,2.26-8.54,3.39-15.02,3.39ZM511.54,72.33c4.15,0,7.5-.98,10.05-2.95,2.55-1.97,4.42-4.42,5.63-7.38,1.2-2.95,1.87-5.92,2.02-8.9.07-1.09.11-2.4.11-3.93s-.04-2.84-.11-3.93c-.15-2.99-.82-5.95-2.02-8.9-1.2-2.95-3.08-5.41-5.63-7.38-2.55-1.97-5.9-2.95-10.05-2.95s-7.59.95-10.11,2.84c-2.51,1.89-4.32,4.37-5.41,7.43-1.09,3.06-1.71,6.34-1.86,9.83-.07,2.04-.07,4.08,0,6.12.15,3.5.76,6.77,1.86,9.83s2.9,5.54,5.41,7.43c2.51,1.9,5.88,2.84,10.11,2.84Z"/>
      <path class="cls-1" d="M574.8,78.67c-7.07,0-12.67-2.31-16.83-6.94-4.15-4.62-6.52-10.69-7.1-18.19-.07-1.09-.11-2.55-.11-4.37s.04-3.28.11-4.37c.36-4.95,1.53-9.32,3.5-13.11,1.97-3.79,4.68-6.74,8.14-8.85,3.46-2.11,7.56-3.17,12.29-3.17,5.1,0,9.43,1.13,13,3.39,3.57,2.26,6.32,5.5,8.25,9.72,1.93,4.23,2.9,9.25,2.9,15.08v1.64c0,.73-.24,1.31-.71,1.75-.47.44-1.08.66-1.8.66h-38.9v1.09c.15,3.28.91,6.39,2.29,9.34,1.38,2.95,3.35,5.35,5.9,7.21,2.55,1.86,5.57,2.79,9.07,2.79,3.13,0,5.74-.47,7.81-1.42,2.08-.95,3.73-1.98,4.97-3.12,1.24-1.13,2.04-1.98,2.4-2.57.66-.95,1.16-1.51,1.53-1.69.36-.18.95-.27,1.75-.27h1.75c.66,0,1.22.2,1.69.6.47.4.67.93.6,1.58-.07,1.02-.64,2.28-1.69,3.77-1.06,1.49-2.55,2.97-4.48,4.42-1.93,1.46-4.28,2.66-7.05,3.61-2.77.95-5.86,1.42-9.29,1.42ZM557.54,45.78h34.74v-.44c0-3.64-.69-6.92-2.08-9.83-1.38-2.91-3.39-5.23-6.01-6.94-2.62-1.71-5.75-2.57-9.4-2.57s-6.76.86-9.34,2.57c-2.59,1.71-4.55,4.03-5.9,6.94-1.35,2.91-2.02,6.19-2.02,9.83v.44Z"/>
      <path class="cls-1" d="M615.77,77.57c-.73,0-1.31-.22-1.75-.66-.44-.44-.66-1.02-.66-1.75V23.27c0-.73.22-1.33.66-1.8.44-.47,1.02-.71,1.75-.71h1.75c.73,0,1.33.24,1.8.71.47.47.71,1.08.71,1.8v5.03c1.31-2.55,3.2-4.44,5.68-5.68,2.48-1.24,5.53-1.86,9.18-1.86h4.04c.73,0,1.31.22,1.75.66.44.44.66,1.02.66,1.75v1.53c0,.73-.22,1.31-.66,1.75-.44.44-1.02.66-1.75.66h-4.7c-4.37,0-7.83,1.28-10.38,3.82s-3.82,6.01-3.82,10.38v33.87c0,.73-.24,1.31-.71,1.75-.47.44-1.08.66-1.8.66h-1.75Z"/>
      <path class="cls-1" d="M669.42,78.67c-3.79,0-7.05-.51-9.78-1.53-2.73-1.02-4.97-2.24-6.72-3.66-1.75-1.42-3.04-2.82-3.88-4.21-.84-1.38-1.29-2.44-1.37-3.17-.07-.8.18-1.4.77-1.8.58-.4,1.13-.6,1.64-.6h1.64c.44,0,.82.07,1.15.22.33.15.75.55,1.26,1.2.95,1.24,2.04,2.42,3.28,3.55,1.24,1.13,2.82,2.02,4.75,2.68,1.93.66,4.35.98,7.27.98,4.37,0,7.98-.84,10.82-2.51,2.84-1.67,4.26-4.15,4.26-7.43,0-2.04-.57-3.68-1.69-4.92-1.13-1.24-3.04-2.33-5.74-3.28-2.7-.95-6.34-1.93-10.93-2.95-4.59-1.09-8.1-2.4-10.54-3.93-2.44-1.53-4.1-3.29-4.97-5.3-.87-2-1.31-4.17-1.31-6.5,0-2.55.73-5.04,2.18-7.48,1.46-2.44,3.62-4.44,6.5-6.01,2.88-1.57,6.5-2.35,10.87-2.35,3.57,0,6.61.47,9.12,1.42,2.51.95,4.57,2.09,6.17,3.44,1.6,1.35,2.79,2.68,3.55,3.99.76,1.31,1.18,2.37,1.26,3.17.07.73-.15,1.31-.66,1.75-.51.44-1.09.66-1.75.66h-1.64c-.58,0-1.06-.13-1.42-.38-.37-.25-.69-.6-.98-1.04-.73-1.16-1.6-2.26-2.62-3.28-1.02-1.02-2.39-1.84-4.1-2.46-1.71-.62-4.03-.93-6.94-.93-4.37,0-7.61.89-9.72,2.68-2.11,1.79-3.17,4.06-3.17,6.83,0,1.6.44,3,1.31,4.21.87,1.2,2.51,2.29,4.92,3.28,2.4.98,5.9,2.02,10.49,3.11,4.66,1.02,8.34,2.28,11.04,3.77,2.69,1.49,4.61,3.26,5.74,5.3,1.13,2.04,1.69,4.44,1.69,7.21,0,2.91-.82,5.61-2.46,8.09-1.64,2.48-4.08,4.46-7.32,5.96-3.24,1.49-7.23,2.24-11.96,2.24Z"/>
      <path class="cls-2" d="M704.38,77.57c-.8,0-1.47-.27-2.02-.82-.55-.55-.82-1.22-.82-2.02v-16.39c0-.8.27-1.49.82-2.08.55-.58,1.22-.87,2.02-.87h16.39c.8,0,1.49.29,2.08.87.58.58.87,1.27.87,2.08v16.39c0,.8-.29,1.48-.87,2.02-.58.55-1.28.82-2.08.82h-16.39Z"/>
    </g>
  </g>
</svg>