<?xml version="1.0" encoding="UTF-8"?>
<svg id="Layer_2" data-name="Layer 2" xmlns="http://www.w3.org/2000/svg" viewBox="0 0 233.57 120">
  <defs>
    <style>
      .cls-1 {
        fill: #4a8da5;
      }

      .cls-1, .cls-2 {
        stroke-width: 0px;
      }

      .cls-2 {
        fill: #e9eff1;
      }
    </style>
  </defs>
  <g id="Layer_1_copy_5" data-name="Layer 1 copy 5">
    <g>
      <path class="cls-2" d="M4.63,120c-1.26,0-2.34-.46-3.26-1.37-.92-.91-1.37-2-1.37-3.26V4.63c0-1.26.46-2.34,1.37-3.26s2-1.37,3.26-1.37h27.09c2.28,0,3.94.51,4.97,1.54,1.03,1.03,1.71,1.83,2.06,2.4l28.97,47.49V4.63c0-1.26.46-2.34,1.37-3.26s2-1.37,3.26-1.37h31.03c1.26,0,2.34.46,3.26,1.37.91.92,1.37,2,1.37,3.26v110.74c0,1.26-.46,2.34-1.37,3.26s-2,1.37-3.26,1.37h-27.09c-2.29,0-3.94-.54-4.97-1.63-1.03-1.08-1.71-1.86-2.06-2.32l-28.97-43.71v43.03c0,1.26-.46,2.34-1.37,3.26s-2,1.37-3.26,1.37H4.63Z"/>
      <path class="cls-1" d="M101.22,120c-1.14,0-2.06-.34-2.74-1.03-.69-.68-1.03-1.6-1.03-2.74V3.94c0-1.26.34-2.23,1.03-2.91s1.6-1.03,2.74-1.03h39.94c12,0,21.57,2.86,28.71,8.57,7.14,5.72,10.71,14.4,10.71,26.06,0,9.14-2.29,16.46-6.86,21.94-4.57,5.49-10.91,9.2-19.03,11.14l27.6,46.97c.34.68.51,1.31.51,1.88,0,.92-.34,1.71-1.03,2.4-.69.69-1.49,1.03-2.4,1.03h-2.06c-1.83,0-3.2-.48-4.11-1.46-.92-.97-1.71-2.03-2.4-3.17l-27.26-46.11h-35.31v46.97c0,1.14-.34,2.06-1.03,2.74-.69.69-1.66,1.03-2.91,1.03h-3.09ZM108.25,58.97h32.06c9.94,0,17.34-2.03,22.2-6.09,4.86-4.06,7.29-10.14,7.29-18.26s-2.43-14.2-7.29-18.26c-4.86-4.06-12.26-6.09-22.2-6.09h-32.06v48.69Z"/>
      <path class="cls-2" d="M203.23,120c-1.26,0-2.31-.43-3.17-1.29-.86-.86-1.29-1.91-1.29-3.17v-25.71c0-1.26.43-2.34,1.29-3.26.86-.91,1.91-1.37,3.17-1.37h25.71c1.26,0,2.34.46,3.26,1.37.91.92,1.37,2,1.37,3.26v25.71c0,1.26-.46,2.32-1.37,3.17-.92.86-2,1.29-3.26,1.29h-25.71Z"/>
    </g>
  </g>
</svg>